<?xml version="1.0" encoding="utf-8"?>
<!-- Generator: Adobe Illustrator 24.3.0, SVG Export Plug-In . SVG Version: 6.00 Build 0)  -->
<svg version="1.1" id="Layer_1" xmlns="http://www.w3.org/2000/svg" xmlns:xlink="http://www.w3.org/1999/xlink" x="0px" y="0px"
	 viewBox="0 0 500 500" style="enable-background:new 0 0 500 500;" xml:space="preserve">
<style type="text/css">
	.st0{fill:#F9ED32;stroke:#000000;stroke-miterlimit:10;}
	.st1{stroke:#000000;stroke-miterlimit:10;}
</style>
<path class="st0" d="M243.44,90.291c-1.277,0.95-2.638,2.202-3.932,3.866L99.44,231.891c0,0-13.44,10.08,5.28,26.88
	c18.72,16.8,141.6,133.44,141.6,133.44s8.162,8.642,19.053,7.591c7.467-0.72,12.628-5.713,14.547-7.591
	c13.14-12.859,66.253-64.358,137.28-133.92c3.949-2.894,8.551-7.383,8.813-13.119c0.267-5.846-4.089-10.435-5.933-12.321
	c-9.622-9.839-69.126-67.024-151.2-144.96C266.3,87.057,253.142,83.069,243.44,90.291z"/>
<path class="st1" d="M149.903,359.349V147.383h31.388l43.68,73.759l36-55.2l34.08,56.16l45.6-74.719h30.24v211.966h-30.24
	l-33.6-61.887l-2.88-5.28l14.88-24c1.107-1.267,2.213-2.534,3.32-3.801c8.653,15.027,17.307,30.054,25.96,45.081l-0.96-50.4v-19.68
	l0.96-45.12l-85.44,142.08l-80.16-136.8l-8.16-13.44l1.92,125.76l27.84-45.12l15.84,26.4l-37.44,66.207H149.903z"/>
<polygon class="st0" points="243.597,249.599 260.877,218.879 277.197,247.679 262.797,281.662 "/>
<g>
</g>
<g>
</g>
<g>
</g>
<g>
</g>
<g>
</g>
<g>
</g>
</svg>
